<svg id="All" xmlns="http://www.w3.org/2000/svg" viewBox="0 0 202 202"><defs><style>.cls-1{fill:#fff;}.cls-2{fill:#dfe6f1;}.cls-3{fill:#2b1b35;}</style></defs><title>Icons_COM</title><path class="cls-1" d="M101,1h0A100,100,0,0,1,201,101h0A100,100,0,0,1,101,201h0A100,100,0,0,1,1,101H1A100,100,0,0,1,101,1Z"/><path class="cls-2" d="M136.81,75.67h-2a1.67,1.67,0,0,0-1.67,1.67,1.67,1.67,0,1,1-3.33,0,5,5,0,0,1,5-5h10a1.67,1.67,0,0,0,0-3.33h-10a5,5,0,1,1,0-10h3.33a1.67,1.67,0,1,1,0,3.33h-3.33a1.67,1.67,0,1,0,0,3.33h10a5,5,0,1,1,0,10h-8Zm8-13.33a1.57,1.57,0,0,1-1.17-.5,1.19,1.19,0,0,1-.36-0.53,1.55,1.55,0,0,1,0-1.27,1.17,1.17,0,0,1,.36-0.53,1.21,1.21,0,0,1,.53-0.36,1.65,1.65,0,0,1,1.8.36,1.58,1.58,0,0,1,.5,1.17,1.36,1.36,0,0,1-.13.63,1.19,1.19,0,0,1-.37.53A1.56,1.56,0,0,1,144.83,62.34Z"/><path class="cls-3" d="M163.83,107.67H149.28a5.93,5.93,0,0,0,.65-2.67v-1.21a8.38,8.38,0,0,0,0-16.74V85a2,2,0,0,0-2-2h-20a2,2,0,0,0-2,2v20a5.93,5.93,0,0,0,.65,2.67H97.75V104.5a2,2,0,0,0-2-2h-8V99H117a2,2,0,0,0,2-2V51a2,2,0,0,0-2-2H54.53a2,2,0,0,0-2,2V97a2,2,0,0,0,2,2H83.75v3.5h-8a2,2,0,0,0-2,2v3.17H39.83a2,2,0,0,0-2,2v10a2,2,0,0,0,2,2h6v30h4v-30h4v30h4v-30H118v28a2,2,0,0,0,2,2h35.83a2,2,0,0,0,2-2v-28h6a2,2,0,0,0,2-2v-10A2,2,0,0,0,163.83,107.67ZM153.9,95.42a4.41,4.41,0,0,1-4,4.37V91A4.41,4.41,0,0,1,153.9,95.42Zm-24-8.42h16v18a2,2,0,0,1-2,2h-12a2,2,0,0,1-2-2V87ZM56.53,53H115V95H56.53V53Zm21.22,53.5h16v1.17h-16V106.5ZM122,147.67v-11h11.93a4,4,0,0,0,8,0h11.93v11H122Zm14-11h3.88A2,2,0,0,1,136,136.67Zm17.85-4H122v-11h11.93a4,4,0,0,0,8,0h11.93v11Zm-17.85-11h3.86A2,2,0,0,1,136,121.67Zm25.85-4h-120v-6h120v6Z"/><path class="cls-3" d="M106.38,90.1a1,1,0,0,0-1-1H62.67v-27a1,1,0,0,0-2,0v28a1,1,0,0,0,1,1h43.71A1,1,0,0,0,106.38,90.1Z"/></svg>