<svg id="All" xmlns="http://www.w3.org/2000/svg" xmlns:xlink="http://www.w3.org/1999/xlink" viewBox="0 0 202 202"><defs><style>.cls-1{fill:none;}.cls-2{fill:#fff;}.cls-3{fill:#0049bc;}.cls-4{fill:#dfe6f1;}.cls-5{clip-path:url(#clip-path);}</style><clipPath id="clip-path"><rect class="cls-1" x="92.16" y="62.13" width="67.59" height="44.21"/></clipPath></defs><title>Icons_COM</title><path class="cls-2" d="M101,1h0A100,100,0,0,1,201,101h0A100,100,0,0,1,101,201h0A100,100,0,0,1,1,101H1A100,100,0,0,1,101,1Z"/><path class="cls-3" d="M155.74,104.33H59V43.76a9.52,9.52,0,0,1,19-.65c-6.64.64-11,4.45-11,9.89a2,2,0,0,0,2,2H91a2,2,0,0,0,2-2c0-5.46-4.36-9.27-11-9.9A13.53,13.53,0,0,0,68.52,30.24,13.39,13.39,0,0,0,55,43.76v60.57H44.26A2.25,2.25,0,0,0,42,106.56v8.21A2.25,2.25,0,0,0,44.26,117H51v18.44A15.51,15.51,0,0,0,66.42,151H71v8H63v4H75V151h48v12h12v-4h-8v-8h6.58A15.51,15.51,0,0,0,149,135.44V117h6.74a2.25,2.25,0,0,0,2.26-2.23v-8.21A2.25,2.25,0,0,0,155.74,104.33ZM88.66,51H71.44c1.23-2.91,5.16-4,8.61-4S87.44,48.09,88.66,51ZM145,135.44A11.51,11.51,0,0,1,133.58,147H66.42A11.51,11.51,0,0,1,55,135.44V117h90v18.44ZM154,113H46v-4.67H154V113Z"/><rect class="cls-4" x="74.19" y="58.66" width="3.5" height="2" transform="translate(10.81 130.97) rotate(-85.75)"/><path class="cls-4" d="M74.41,94.21l-2-.15L72.79,89l2,0.15ZM75,86l-2-.15,0.37-5.06,2,0.15Zm0.6-8.18-2-.15L74,72.64l2,0.15Zm0.6-8.18-2-.15,0.37-5.06,2,0.15Z"/><rect class="cls-4" x="71.3" y="98" width="3.5" height="2" transform="translate(-31 164.66) rotate(-85.83)"/><rect class="cls-4" x="87.27" y="57.91" width="2" height="3.5" transform="translate(-7.7 13.39) rotate(-8.31)"/><path class="cls-4" d="M92.34,94.28l-0.74-5,2-.29,0.74,5Zm-1.2-8.19L90.4,81l2-.29,0.74,5Zm-1.2-8.19-0.74-5,2-.29,0.74,5Zm-1.2-8.19-0.74-5,2-.29,0.74,5Z"/><rect class="cls-4" x="93.05" y="97.26" width="2" height="3.5" transform="translate(-13.42 14.75) rotate(-8.37)"/><rect class="cls-4" x="79.05" y="57.92" width="2" height="3.5"/><path class="cls-4" d="M81,94.14H79V89.07h2v5.07ZM81,86H79V80.89h2V86Zm0-8.18H79V72.71h2v5.07Zm0-8.18H79V64.53h2V69.6Z"/><rect class="cls-4" x="79.05" y="97.25" width="2" height="3.5"/><rect class="cls-4" x="83.16" y="57.91" width="2" height="3.5" transform="translate(-4.14 6.31) rotate(-4.19)"/><path class="cls-4" d="M85.71,94.21l-0.37-5.06,2-.15,0.37,5.06ZM85.11,86L84.73,81l2-.15,0.37,5.06ZM84.5,77.85l-0.37-5.06,2-.15,0.37,5.06Zm-0.61-8.18L83.52,64.6l2-.15,0.37,5.06Z"/><rect class="cls-4" x="86.07" y="97.25" width="2" height="3.5" transform="translate(-7.11 6.74) rotate(-4.26)"/><rect class="cls-4" x="70.08" y="58.66" width="3.5" height="2" transform="translate(2.35 122.04) rotate(-81.63)"/><path class="cls-4" d="M67.75,94.28l-2-.29,0.74-5,2,0.29ZM69,86.1l-2-.29,0.74-5,2,0.29Zm1.2-8.19-2-.29,0.74-5,2,0.29Zm1.2-8.19-2-.29,0.74-5,2,0.29Z"/><rect class="cls-4" x="64.3" y="98.01" width="3.5" height="2" transform="translate(-41.52 149.95) rotate(-81.63)"/><g class="cls-5"><path class="cls-3" d="M132,96.24l-1.29,1.53s0.89,0.76,1.79,1.49c-5.75,2.4-9.89,1.26-11.39-1-1.07-1.6-.68-3.5,1-5a1,1,0,1,0-1.31-1.51c-2.45,2.12-3,5.17-1.38,7.6,1.27,1.9,3.73,3.23,7.08,3.23a18.83,18.83,0,0,0,8.32-2.23,1,1,0,0,0,.15-1.7C134.06,98,132,96.24,132,96.24Z"/><circle class="cls-3" cx="115.58" cy="81.3" r="1.5"/><path class="cls-3" d="M141.25,83.58a1.75,1.75,0,0,0-1.63-1.17A1.9,1.9,0,0,0,138,83.53a6.82,6.82,0,0,1-6.85,4.79h-4.76a0.32,0.32,0,0,1-.31-0.17,0.54,0.54,0,0,1,0-.56,9.75,9.75,0,0,0-6-14.64,10.27,10.27,0,0,0-7.83,1.2,8.91,8.91,0,0,0-4,5.81,3.92,3.92,0,0,1-2.87,2.48c-2.79.64-3.6,2.39-3.45,3.7s1.42,2.9,4.49,2.9h0a33.45,33.45,0,0,0,3.84-.3l0.1,0.06a1.59,1.59,0,0,1,.94,1.12,0.64,0.64,0,0,1-.2.51A11.31,11.31,0,0,0,106.58,101a11.51,11.51,0,0,0,11.62,9.88h13.28c6.94,0,11.84-4.17,12.78-10.87C145,94.5,141.4,84,141.25,83.58Zm-9.77,23.8H118.19a8.11,8.11,0,0,1-8.14-6.8,7.7,7.7,0,0,1,3.2-7.3,4.11,4.11,0,0,0,1.67-3.52,4.43,4.43,0,0,0-1-2.55,2.47,2.47,0,0,0,1.67-1.4c0.11-.42.09-1.23-1.16-1.9a2.91,2.91,0,0,1-1.27-1.85A4.34,4.34,0,0,0,112,80a5.42,5.42,0,0,1,2.22-3,6.72,6.72,0,0,1,5.14-.74,6.23,6.23,0,0,1,4.54,4.51,6.3,6.3,0,0,1-.75,4.86,4.05,4.05,0,0,0-.14,4.11,3.8,3.8,0,0,0,3.38,2h4.76a10.23,10.23,0,0,0,8-3.41c1,3.59,2.09,8.39,1.71,11.11C140.46,101.88,138.89,107.38,131.47,107.38ZM111,85.11a34.27,34.27,0,0,1-3.63.4,7.28,7.28,0,0,0,3.74-3.28c0.06,0.15.12,0.31,0.2,0.51a5.07,5.07,0,0,0,1.79,2.67l-0.62.17A1.74,1.74,0,0,0,111,85.11Z"/></g></svg>