<svg id="Layer_1" data-name="Layer 1" xmlns="http://www.w3.org/2000/svg" viewBox="0 0 176 32"><defs><style>.cls-1{fill:#0049bc;fill-rule:evenodd;}</style></defs><title>Aquaphor_ENG</title><path class="cls-1" d="M76.48,1.19l-8.1,19.39h5.78l1.14-2.76h8.91l1,2.76h6.55L83.47,1.19h-7Zm0.11,13,3.35-9h0l2.87,9H76.59Zm-62.14-13L6.31,20.57h5.82l1.1-2.76h8.91l1,2.76h6.51L21.41,1.19h-7Zm0.11,13,3.31-9h0.07l2.87,9H14.56ZM39.15,20.9l2,1.73h6.18l-3.35-2.73c3.42-1.48,5.23-4.68,5.23-9,0-6.19-3.54-10-10.31-10s-10.27,3.8-10.27,10,3.57,10,10.27,10h0.3Zm-4.93-10c0-3.35,1.33-6.19,4.64-6.19s4.67,2.84,4.67,6.19c0,3.17-1.32,6.19-4.67,6.19S34.22,14,34.22,10.88Zm131.9,1.81a5.52,5.52,0,0,0,3.1-5.12c0-4.35-3.06-6.34-9.54-6.34h-6.81V20.54h5.71V13.79H160c1.29,0.26,1.91,1.22,2.8,3.61L164,20.57h5.71l-2-4.75C167.07,14.38,166.78,13.31,166.11,12.69ZM160,10.14h-1.44V4.87H160c2,0,3.53.63,3.53,2.62S162,10.14,160,10.14ZM140.35,0.85c-7,0-10.68,3.8-10.68,10s3.72,10,10.68,10,10.71-3.87,10.71-10S147.42,0.85,140.35.85Zm0,16.22c-3.42,0-4.82-3-4.82-6.19,0-3.35,1.4-6.19,4.82-6.19s4.86,2.84,4.86,6.19C145.21,14,143.81,17.07,140.35,17.07ZM51.08,13.2v-12h5.45V12.35c0,2.54.73,4.72,3.54,4.72s3.53-2.17,3.53-4.72V1.22h5.49v12c0,5.31-3.64,7.7-9,7.7S51.08,18.51,51.08,13.2ZM116,20.57h-5.45V1.22H116V8.59h6.48V1.22h5.48V20.57h-5.48V12.28H116v8.29ZM99.37,1.22H92.6V20.54h5.67V13.79h2.21c5.34,0,8.47-2.32,8.47-6.23C108.95,3.22,105.89,1.22,99.37,1.22Zm0.37,8.92H98.27V4.87h1.47c2,0,3.53.63,3.53,2.62S101.69,10.14,99.74,10.14ZM45.85,25h1.41l-3,6.17H42.79l0-.09-2.23-4.87-2.27,5H36.75l-3-6.17h1.41l2.31,4.94h0L39.81,25h1.43l2.25,4.94h0Zm8.29,0h-3c-2.33,0-2.64.93-2.64,1.84H49.8c0-.42,0-0.82,1.55-0.82H54c1,0,1.56.39,1.56,1.06v0.45a2.17,2.17,0,0,0-1.14-.24h-4c-2,0-2.31,1-2.31,1.53v0.71c0,0.75.43,1.65,2.47,1.65h3.92a2,2,0,0,0,1.08-.3v0.3H56.9v-4C56.9,25.71,56,25,54.14,25Zm1.45,4.21c0,0.44-.16.94-1.39,0.94H50.78c-1.19,0-1.36-.35-1.36-0.73V29c0-.4.1-0.7,1.36-0.7H54.2C55.59,28.26,55.59,29,55.59,29.18ZM65,28.46H66.3v0.15c0,1.68-1,2.53-3.09,2.53H61.77c-1.7,0-2.64-.84-2.64-2.37V26H58v-1h1.17V23.8h1.31v1.14h4.92v1H60.44v2.94a1.18,1.18,0,0,0,1.33,1.22h1.34c1.73,0,1.88-.74,1.88-1.51V28.46Zm8.83-3.52H70.91c-2,0-3.09,1.19-3.09,2.31V28.8c0,1.55,1,2.34,3.12,2.34h3.4c2.41,0,2.6-1.55,2.6-2H75.63c0,0.65-.52,1-1.46,1H70.89c-1.21,0-1.77-.46-1.77-1.44V28.26h7.81v-1.1C76.94,26.05,76,24.94,73.82,24.94Zm-3.07,1h3.16a1.47,1.47,0,0,1,1.7,1.29H69.14A1.47,1.47,0,0,1,70.75,26Zm16.12,1.54H85.56c0-.45-0.18-1.51-1.88-1.51H81.89a1.58,1.58,0,0,0-1.77,1.23v3.93H78.81V25h1.31v0.49a2.55,2.55,0,0,1,1.7-.49h2C86.57,25,86.87,26.73,86.87,27.49ZM122.21,25H119.3c-2,0-3.09,1.19-3.09,2.31v1.54c0,1.55,1,2.34,3.12,2.34h3.4c2.41,0,2.6-1.55,2.6-2H124c0,0.65-.52,1-1.46,1h-3.27c-1.21,0-1.77-.46-1.77-1.44V28.27h7.81v-1.1C125.33,26.06,124.36,25,122.21,25Zm-3.06,1h3.16a1.47,1.47,0,0,1,1.7,1.29h-6.49A1.47,1.47,0,0,1,119.14,26Zm16.12,1.54h-1.31c0-.46-0.18-1.51-1.88-1.51h-1.79a1.58,1.58,0,0,0-1.77,1.23v3.93h-1.31V25h1.31v0.49a2.55,2.55,0,0,1,1.69-.49h2C135,25,135.26,26.74,135.26,27.5ZM94.95,24.92h3v1h-3v5.2H93.63v-5.2H92.46v-1h1.17c0-1.69.69-2.33,2.38-2.33h1.87v1H96.28C95.41,23.6,95,23.74,94.95,24.92Zm5.24-2.33h1.31v1.16h-1.31V22.59Zm0,2.38h1.31v6.17h-1.31V25Zm3.54-2.38H105v8.55h-1.31V22.59Zm9.69,6h1.31v0c0,1.68-1,2.53-3.09,2.53h-1.44c-1.7,0-2.64-.84-2.64-2.37V26h-1.17v-1h1.17V23.8h1.31v1.14h4.92v1h-4.92v2.94a1.19,1.19,0,0,0,1.33,1.22h1.34c1.73,0,1.88-.74,1.88-1.51v0Zm30.85-1.71V26.56c0-.38-0.68-0.61-1.81-0.61H139c-0.52,0-1.14.11-1.14,0.66v0.24c0,0.16,0,.66,1.14.66h4c2.12,0,2.56.92,2.56,1.7v0.26c0,0.83-.83,1.67-2.68,1.67H139c-1.68,0-2.5-.53-2.5-1.6V29.16h1.31v0.28c0,0.32,0,.68,1.46.68h3.54c0.42,0,1.41-.06,1.41-0.65V29.2c0-.42-0.45-0.68-1.19-0.68h-4c-1.68,0-2.5-.55-2.5-1.67V26.61c0-.81.69-1.67,2.61-1.67h3.27c2.09,0,3.15.54,3.15,1.6v0.33h-1.31Z"/></svg>