<svg id="All" xmlns="http://www.w3.org/2000/svg" xmlns:xlink="http://www.w3.org/1999/xlink" viewBox="0 0 202 202"><defs><style>.cls-1,.cls-6{fill:none;}.cls-2{fill:#fff;}.cls-3{clip-path:url(#clip-path);}.cls-4{fill:#dfe6f1;}.cls-5{fill:#0049bc;}.cls-6{stroke:#2b1b35;stroke-linecap:round;stroke-linejoin:round;}</style><clipPath id="clip-path"><rect class="cls-1" x="74.62" y="77.05" width="15.21" height="43.69" rx="2.83" ry="2.83"/></clipPath></defs><title>Icons_COM</title><path class="cls-2" d="M101,1h0A100,100,0,0,1,201,101h0A100,100,0,0,1,101,201h0A100,100,0,0,1,1,101H1A100,100,0,0,1,101,1Z"/><g class="cls-3"><path class="cls-4" d="M93.48,135.53H71a4.32,4.32,0,0,1-4.32-4.32l5.64-33.9s2.18,10.34,11.61,5.81c8.82-4.23,14.41,3.29,14.41,3.29l-0.57,24.8A4.32,4.32,0,0,1,93.48,135.53Z"/></g><path class="cls-5" d="M84.15,76H80.29a6.68,6.68,0,0,0-6.67,6.67v32.35a6.68,6.68,0,0,0,6.67,6.67h3.87a6.68,6.68,0,0,0,6.67-6.67V82.72A6.68,6.68,0,0,0,84.15,76Zm0,43.69H80.29a4.68,4.68,0,0,1-4.67-4.67V82.72A4.68,4.68,0,0,1,80.29,78h3.87a4.68,4.68,0,0,1,4.67,4.67v0.47H81.95a1,1,0,1,0,0,2h6.88v5.41H81.95a1,1,0,1,0,0,2h6.88V98H81.95a1,1,0,1,0,0,2h6.88v5.41H81.95a1,1,0,1,0,0,2h6.88v5.41H81.95a1,1,0,1,0,0,2h6.88v0.24A4.68,4.68,0,0,1,84.15,119.73Z"/><path class="cls-5" d="M123.17,65.18a2,2,0,0,0-1.62-.83H111.38v-4a7.68,7.68,0,0,0-7.67-7.67H97.34V50.25a5.92,5.92,0,0,0-5.92-5.92H73a5.92,5.92,0,0,0-5.92,5.92v2.42H60.73a7.68,7.68,0,0,0-7.67,7.67v4H44.76a7.2,7.2,0,0,0-7.19,7.19v29.65a7.2,7.2,0,0,0,7.19,7.19h8.31v29.06a7.68,7.68,0,0,0,7.67,7.67h43a7.68,7.68,0,0,0,7.67-7.67V103.56L123.45,67A2,2,0,0,0,123.17,65.18ZM57.07,67.35h50.31v67.89H57.07V67.35Zm14-17.1A1.92,1.92,0,0,1,73,48.33h18.4a1.92,1.92,0,0,1,1.92,1.92v2.42H71.1V50.25ZM60.73,56.68h43a3.67,3.67,0,0,1,3.67,3.67v5H57.07v-5A3.67,3.67,0,0,1,60.73,56.68Zm-16,47.7a3.19,3.19,0,0,1-3.19-3.19V71.54a3.19,3.19,0,0,1,3.19-3.19h8.31v1.23H46.89a3.74,3.74,0,0,0-3.95,4l0,25.35a2,2,0,0,0,2,2h0a2,2,0,0,0,2-2l0-25.31h6.11v30.79H44.76Zm58.95,36.73h-43a3.67,3.67,0,0,1-3.67-3.67v-0.19h50.31v0.19A3.67,3.67,0,0,1,103.71,141.1Zm7.67-50.3V68.35h7.41Z"/><polygon class="cls-2" points="121.55 110.11 102.15 110.11 106.39 144.69 118.72 146.81 121.55 110.11"/><line class="cls-6" x1="102.46" y1="110.11" x2="149.03" y2="110.11"/><path class="cls-4" d="M129.74,100.7h-2.69a2.26,2.26,0,0,0-2.27,2.26,2.27,2.27,0,0,1-2.34,2.28,2.45,2.45,0,0,1-2.18-2.74,6.82,6.82,0,0,1,6.79-6.34h13.48a2.37,2.37,0,0,0,2.38-1.88,2.28,2.28,0,0,0-2.24-2.66H127.36a7,7,0,0,1-7.08-6.13A6.82,6.82,0,0,1,127.05,78h4.42a2.35,2.35,0,0,1,2.36,1.89,2.27,2.27,0,0,1-2.24,2.65h-4.4a2.37,2.37,0,0,0-2.38,1.88,2.28,2.28,0,0,0,2.24,2.66h13.32a7,7,0,0,1,7.08,6.13,6.82,6.82,0,0,1-6.78,7.49H129.74Zm10.93-18.16a2.13,2.13,0,0,1-1.59-.69,1.62,1.62,0,0,1-.49-0.73,2.12,2.12,0,0,1,0-1.73,1.59,1.59,0,0,1,.5-0.73,1.64,1.64,0,0,1,.73-0.49,2.25,2.25,0,0,1,2.45.49,2.15,2.15,0,0,1,.68,1.59,1.85,1.85,0,0,1-.18.86,1.61,1.61,0,0,1-.5.73A2.13,2.13,0,0,1,140.68,82.54Z"/><path class="cls-5" d="M161,118.48a12.58,12.58,0,0,0-9.15-4h-1l0.42-4.21a2,2,0,0,0-2-2.2h-47.2a2,2,0,0,0-2,2.2l3.1,30.85A12,12,0,0,0,115.2,152h21.1a12,12,0,0,0,11.94-10.8l0.16-1.58h3.14a12.75,12.75,0,0,0,12.87-11.7A12.43,12.43,0,0,0,161,118.48ZM136.3,148H115.2a8,8,0,0,1-6.82-3.86h34.73A8,8,0,0,1,136.3,148Zm8-7.2a8.07,8.07,0,0,1-.26,1.34H107.5a8.08,8.08,0,0,1-.26-1.34l-2.88-28.66h42.77Zm7.28-5.18H148.8L150,123.84h1.67a3.52,3.52,0,0,1,2.5,1.07,3,3,0,0,1,.9,2.19,3.16,3.16,0,0,1-.93,2.17A2,2,0,0,0,157,132.1a7.16,7.16,0,0,0,2.1-4.9,7,7,0,0,0-2-5.09,7.55,7.55,0,0,0-5.36-2.27h-1.27l0.13-1.33h1.38a8.53,8.53,0,0,1,8.51,9.11A8.74,8.74,0,0,1,151.53,135.58Z"/></svg>