<svg id="All" xmlns="http://www.w3.org/2000/svg" viewBox="0 0 202 202"><defs><style>.cls-1{fill:#fff;}.cls-2{fill:#dfe6f1;}.cls-3{fill:#0049bc;}</style></defs><title>Icons_COM</title><path class="cls-1" d="M101,1h0A100,100,0,0,1,201,101h0A100,100,0,0,1,101,201h0A100,100,0,0,1,1,101H1A100,100,0,0,1,101,1Z"/><path class="cls-2" d="M79,45.67a8,8,0,1,0-8-8A8,8,0,0,0,79,45.67Zm-16,4a6,6,0,1,0-6-6A6,6,0,0,0,63,49.67Zm48-4a8,8,0,1,0-8-8A8,8,0,0,0,111,45.67Zm-16,4a6,6,0,1,0-6-6A6,6,0,0,0,95,49.67Z"/><path class="cls-3" d="M160.05,72a2,2,0,0,0-1.95-.09L137,82.43V73.67a2,2,0,0,0-2.89-1.79l-24,12A2,2,0,0,0,109,85.67v14h-8.1l-2.19-42.1a2,2,0,0,0-2-1.9H85.29a2,2,0,0,0-2,1.9L81.1,99.67H72.9l-2.19-42.1a2,2,0,0,0-2-1.9H57.29a2,2,0,0,0-2,1.9L53.1,99.67H43a2,2,0,0,0-2,2v48a2,2,0,0,0,2,2H159a2,2,0,0,0,2-2v-76A2,2,0,0,0,160.05,72ZM157,76.9v4.65l-20,10V86.9Zm-24,0v4.65l-20,10V86.9ZM94.81,59.67l0.26,5H86.92l0.26-5h7.63Zm-8,7h8.36l1.71,33H85.11Zm-20-7,0.26,5H58.92l0.26-5h7.63Zm-8,7h8.36l1.71,33H57.11ZM45,103.67h64v44H45v-44Zm68-2V93.79l20-10v63.88H113v-46Zm24,46V93.79l20-10v63.88H137Z"/><path class="cls-3" d="M127,96h-8a2,2,0,0,0-2,2v8a2,2,0,0,0,2,2h8a2,2,0,0,0,2-2V98A2,2,0,0,0,127,96Zm-2,8h-4v-4h4v4Z"/><path class="cls-3" d="M101,109.67H81a2,2,0,0,0-2,2v20a2,2,0,0,0,2,2h20a2,2,0,0,0,2-2v-20A2,2,0,0,0,101,109.67Zm-2,20H83v-16H99v16Z"/><path class="cls-3" d="M73,109.67H53a2,2,0,0,0-2,2v20a2,2,0,0,0,2,2H73a2,2,0,0,0,2-2v-20A2,2,0,0,0,73,109.67Zm-2,20H55v-16H71v16Z"/><path class="cls-3" d="M127,113.83h-8a2,2,0,0,0-2,2v8a2,2,0,0,0,2,2h8a2,2,0,0,0,2-2v-8A2,2,0,0,0,127,113.83Zm-2,8h-4v-4h4v4Z"/><path class="cls-3" d="M127,131.67h-8a2,2,0,0,0-2,2v8a2,2,0,0,0,2,2h8a2,2,0,0,0,2-2v-8A2,2,0,0,0,127,131.67Zm-2,8h-4v-4h4v4Z"/><path class="cls-3" d="M151,96h-8a2,2,0,0,0-2,2v8a2,2,0,0,0,2,2h8a2,2,0,0,0,2-2V98A2,2,0,0,0,151,96Zm-2,8h-4v-4h4v4Z"/><path class="cls-3" d="M151,113.83h-8a2,2,0,0,0-2,2v8a2,2,0,0,0,2,2h8a2,2,0,0,0,2-2v-8A2,2,0,0,0,151,113.83Zm-2,8h-4v-4h4v4Z"/><path class="cls-3" d="M151,131.67h-8a2,2,0,0,0-2,2v8a2,2,0,0,0,2,2h8a2,2,0,0,0,2-2v-8A2,2,0,0,0,151,131.67Zm-2,8h-4v-4h4v4Z"/></svg>